<?xml version="1.0" encoding="utf-8"?>
<!-- Generator: Adobe Illustrator 16.2.1, SVG Export Plug-In . SVG Version: 6.00 Build 0)  -->
<!DOCTYPE svg PUBLIC "-//W3C//DTD SVG 1.1//EN" "http://www.w3.org/Graphics/SVG/1.1/DTD/svg11.dtd">
<svg version="1.1" id="Layer_1" xmlns="http://www.w3.org/2000/svg" xmlns:xlink="http://www.w3.org/1999/xlink" x="0px" y="0px"
	 width="100.863px" height="100.862px" viewBox="0 0 100.863 100.862" enable-background="new 0 0 100.863 100.862"
	 xml:space="preserve">
<rect fill="#77C269" width="100.863" height="100.862"/>
<g>
	<g>
		<path fill="#FFFFFF" d="M26.401,71.602v1.659h-0.595v-1.07h-2.209v3.726h1.36v0.588h-3.422v-0.588h1.367v-3.726h-2.209v1.07
			h-0.601v-1.659H26.401z"/>
		<path fill="#FFFFFF" d="M32.055,72.191v3.726h1.367v0.588H30v-0.588h1.359v-3.726H30v-0.589h3.421v0.589H32.055z"/>
		<path fill="#FFFFFF" d="M43.58,72.225c0.354,0.219,0.627,0.481,0.823,0.791c0.195,0.312,0.292,0.642,0.292,0.994
			c0,0.395-0.099,0.751-0.296,1.073c-0.2,0.323-0.49,0.606-0.875,0.847c-0.304,0.188-0.679,0.325-1.121,0.415
			c-0.441,0.089-0.996,0.139-1.665,0.154v0.005h-0.097H37.11v-0.588h1.068v-3.726H37.11v-0.589l0.096-0.006h3.533v0.014
			c0.663,0.018,1.222,0.075,1.676,0.174C42.87,71.88,43.259,72.028,43.58,72.225z M39.012,75.917h1.646
			c0.032,0,0.096-0.001,0.193-0.005c0.097-0.005,0.214-0.016,0.357-0.027c0.142-0.015,0.298-0.034,0.469-0.062
			c0.171-0.026,0.348-0.063,0.529-0.112c0.922-0.247,1.459-0.68,1.615-1.299v-0.007c0.005-0.013,0.007-0.027,0.007-0.043
			c0-0.018,0.002-0.029,0.009-0.042v-0.021c0.005-0.01,0.007-0.022,0.007-0.042c0.005-0.035,0.009-0.072,0.011-0.109
			c0.003-0.038,0.005-0.075,0.005-0.11c0-0.305-0.078-0.56-0.233-0.769c-0.156-0.21-0.347-0.385-0.578-0.522
			c-0.23-0.139-0.48-0.244-0.751-0.318c-0.27-0.073-0.524-0.128-0.762-0.163s-0.44-0.058-0.605-0.063
			c-0.166-0.007-0.26-0.011-0.281-0.011h-1.638V75.917z"/>
		<path fill="#FFFFFF" d="M49.917,72.191v3.726h1.367v0.588h-3.422v-0.588h1.359v-3.726h-1.359v-0.589h3.422v0.589H49.917z"/>
		<path fill="#FFFFFF" d="M62.753,71.602v0.589h-1.059v4.313h-0.747l-4.478-4.18v3.592h1.082v0.588h-2.857v-0.588h1.027v-3.726
			h-1.027v-0.589h1.96l0.031,0.029l4.262,4.024v-3.465h-1.051v-0.589H62.753z"/>
		<path fill="#FFFFFF" d="M72.792,76.526V75.94c-0.317,0.354-0.759,0.526-1.216,0.622c-0.457,0.097-0.954,0.145-1.49,0.145
			c-0.572,0-1.108-0.06-1.608-0.181c-0.5-0.12-0.935-0.294-1.303-0.521c-0.377-0.232-0.663-0.507-0.861-0.822
			c-0.197-0.312-0.296-0.651-0.296-1.012c0-0.361,0.096-0.699,0.288-1.014c0.192-0.313,0.474-0.591,0.844-0.825
			c0.363-0.232,0.784-0.409,1.265-0.532c0.479-0.122,0.99-0.185,1.537-0.185c0.562,0,1.086,0.066,1.572,0.197
			c0.487,0.133,0.906,0.321,1.26,0.564l0.009-0.668h0.754v1.739h-0.722L72.8,73.381c-0.075-0.173-0.2-0.335-0.377-0.484
			c-0.178-0.148-0.39-0.277-0.64-0.385c-0.247-0.107-0.526-0.189-0.836-0.25c-0.312-0.061-0.636-0.092-0.973-0.092
			c-0.443,0-0.855,0.05-1.232,0.148s-0.701,0.235-0.976,0.41c-0.272,0.178-0.484,0.388-0.638,0.627
			c-0.151,0.242-0.229,0.506-0.229,0.792c0,0.295,0.08,0.566,0.237,0.813c0.157,0.25,0.377,0.461,0.658,0.641
			c0.28,0.178,0.616,0.316,1.007,0.415c0.392,0.099,0.821,0.147,1.292,0.147c0.226,0,0.466-0.016,0.719-0.047
			c0.254-0.031,0.503-0.082,0.746-0.149c0.244-0.065,0.471-0.16,0.689-0.265c0.445-0.211,0.508-0.482,0.543-0.795v-0.027h-2.369
			v-0.637h3.123v2.281H72.792z"/>
		<path fill="#FFFFFF" d="M80.267,73.664c0.305,0.048,0.609,0.104,0.919,0.167c0.307,0.061,0.584,0.147,0.834,0.257
			c0.249,0.108,0.452,0.249,0.606,0.422c0.154,0.171,0.232,0.391,0.232,0.659c0,0.205-0.065,0.395-0.192,0.566
			c-0.13,0.177-0.309,0.325-0.538,0.452c-0.229,0.128-0.501,0.229-0.811,0.302c-0.311,0.073-0.648,0.11-1.011,0.11
			c-0.402,0-0.784-0.05-1.145-0.149c-0.36-0.102-0.659-0.235-0.896-0.405v0.46h-0.769v-1.812h0.769v0.266
			c0,0.15,0.056,0.287,0.165,0.42c0.11,0.132,0.257,0.247,0.44,0.345c0.187,0.097,0.401,0.177,0.646,0.234
			c0.248,0.058,0.506,0.087,0.779,0.087c0.241,0,0.466-0.022,0.67-0.067c0.205-0.045,0.385-0.107,0.535-0.187
			c0.149-0.08,0.265-0.175,0.35-0.285c0.082-0.109,0.123-0.229,0.123-0.356c0-0.148-0.057-0.27-0.165-0.37
			c-0.108-0.097-0.253-0.18-0.433-0.247s-0.387-0.123-0.622-0.17c-0.237-0.047-0.479-0.092-0.731-0.137
			c-0.31-0.054-0.614-0.11-0.914-0.17c-0.299-0.06-0.567-0.144-0.802-0.248c-0.236-0.106-0.426-0.236-0.571-0.398
			c-0.145-0.16-0.217-0.367-0.217-0.622c0-0.188,0.06-0.358,0.178-0.514c0.117-0.157,0.279-0.293,0.489-0.406
			c0.208-0.113,0.456-0.201,0.742-0.265c0.286-0.061,0.598-0.094,0.936-0.094c0.364,0,0.707,0.04,1.03,0.117
			c0.325,0.08,0.601,0.19,0.83,0.331v-0.354h0.763v1.472h-0.763v-0.207c0-0.103-0.051-0.202-0.155-0.3
			c-0.105-0.1-0.245-0.185-0.422-0.26c-0.175-0.072-0.377-0.132-0.601-0.176c-0.227-0.046-0.458-0.066-0.699-0.066
			c-0.214,0-0.413,0.018-0.594,0.053c-0.182,0.036-0.34,0.085-0.474,0.149c-0.135,0.065-0.238,0.143-0.314,0.232
			c-0.072,0.089-0.111,0.185-0.111,0.287c0,0.138,0.054,0.255,0.161,0.348c0.107,0.095,0.248,0.173,0.425,0.238
			c0.177,0.063,0.38,0.118,0.611,0.163C79.782,73.581,80.02,73.624,80.267,73.664z"/>
	</g>
	<g>
		<g>
			<path fill="#FFFFFF" d="M35.905,45.932h3.354v-7.855h-4.03v2.416h-1.913v-4.297H47.31v4.297h-1.897v-2.416h-4.031v7.855h3.261
				v1.882h-5.89l-0.057-0.029c-0.541-0.269-1.903-0.742-2.792-1.041"/>
		</g>
		<path fill="#FFFFFF" d="M51.479,23.438c0.025-0.01,0.139-0.044,0.31-0.044c0.147,0,0.245,0.025,0.267,0.035
			c3.997,1.976,8.037,3.987,12.029,5.979h6.556c-5.669-2.832-11.522-5.755-17.295-8.609c-0.558-0.275-1.153-0.334-1.557-0.334
			c-0.584,0-1.155,0.123-1.608,0.346c-5.76,2.849-11.599,5.764-17.271,8.597h6.557C43.454,27.419,47.485,25.412,51.479,23.438z"/>
		<g>
			<path fill="#FFFFFF" d="M81.635,34.867c-1.558-0.774-3.115-1.55-4.671-2.324v3.271c1.121,0.559,2.245,1.117,3.369,1.676
				c0.1,0.049,0.153,0.085,0.184,0.107c0.005,0.036,0.011,0.107,0.01,0.233l-0.001,9.399c0.002,0.14-0.009,0.216-0.014,0.252
				c-0.025,0.018-0.073,0.05-0.16,0.093c-3.588,1.786-7.173,3.576-10.758,5.366c-5.747,2.871-11.691,5.84-17.539,8.73
				c-0.021,0.01-0.119,0.035-0.267,0.035c-0.171,0-0.284-0.032-0.31-0.044c-6.079-3.004-12.249-6.085-18.215-9.066
				c-3.325-1.66-6.651-3.321-9.978-4.979c-0.184-0.091-0.236-0.148-0.238-0.148c-0.001-0.006-0.03-0.079-0.029-0.302l0-9.263
				c0-0.214,0.025-0.295,0.023-0.297c0.009-0.009,0.063-0.062,0.225-0.141l3.315-1.653v-3.272l-4.62,2.304
				c-1.268,0.63-1.88,1.638-1.871,3.069v9.244c-0.01,1.436,0.608,2.446,1.89,3.083c3.326,1.655,6.651,3.315,9.975,4.977
				c5.969,2.982,12.142,6.063,18.225,9.071c0.453,0.224,1.024,0.348,1.608,0.348c0.403,0,0.999-0.059,1.557-0.334
				c5.861-2.896,11.808-5.868,17.558-8.74c3.584-1.788,7.167-3.578,10.755-5.362c1.232-0.615,1.82-1.602,1.797-2.992l0.001-9.349
				C83.48,36.465,82.886,35.486,81.635,34.867z"/>
		</g>
		<g>
			<g>
				<g>
					<rect x="51.889" y="41.06" fill="#FFFFFF" width="18.398" height="1.89"/>
				</g>
				<g>
					<rect x="51.889" y="36.202" fill="#FFFFFF" width="18.398" height="1.89"/>
				</g>
				<g>
					<polygon fill="#FFFFFF" points="70.12,45.917 51.889,45.917 51.889,47.807 65.543,47.807 					"/>
				</g>
				<g>
					<polygon fill="#FFFFFF" points="60.724,50.775 51.889,50.775 51.889,52.665 56.932,52.665 					"/>
				</g>
			</g>
		</g>
	</g>
</g>
</svg>
